<svg xmlns="http://www.w3.org/2000/svg" width="480pt" height="290pt" viewBox="0 0 480 290" version="1.1" xmlns:xlink="http://www.w3.org/1999/xlink">
  <g id="surface2" transform="matrix(1,0,0,1,1,23)">
    <path style="stroke:none;fill-rule:evenodd;fill:rgb(74.117647%,10.196078%,55.294118%);fill-opacity:1" d="M 220.800781 173.75 C 224.167969 174.214844 228.265625 174.433594 233.101562 174.398438 C 237.933594 174.367188 243.214844 173.933594 248.949219 173.101562 C 254.714844 172.300781 260.667969 170.964844 266.800781 169.101562 C 272.933594 167.265625 279 164.765625 285 161.601562 C 291.035156 158.433594 296.714844 154.464844 302.050781 149.699219 L 291.101562 137.648438 C 287.898438 141.683594 284.066406 145.417969 279.601562 148.851562 C 275.167969 152.285156 270.382812 155.367188 265.25 158.101562 C 260.117188 160.832031 254.882812 163.148438 249.550781 165.050781 C 244.214844 166.917969 239.066406 168.300781 234.101562 169.199219 C 229.132812 170.132812 224.617188 170.5 220.550781 170.300781 L 220.800781 173.75 M 177.898438 139.949219 C 182.734375 136.082031 186.867188 131.765625 190.300781 127 C 193.699219 122.234375 196.535156 117.316406 198.800781 112.25 C 201.035156 107.214844 202.816406 102.332031 204.148438 97.601562 C 205.484375 92.867188 206.464844 88.617188 207.101562 84.851562 C 207.734375 81.082031 208.132812 78.082031 208.300781 75.851562 C 208.5 73.617188 208.582031 72.484375 208.550781 72.449219 L 261.199219 70.898438 C 262.765625 74.367188 263.433594 78.398438 263.199219 83 C 263 87.632812 262.101562 92.566406 260.5 97.800781 C 258.898438 103.035156 256.800781 108.351562 254.199219 113.75 C 251.601562 119.148438 248.699219 124.367188 245.5 129.398438 C 242.332031 134.433594 239.050781 139.035156 235.648438 143.199219 C 232.285156 147.367188 229.015625 150.851562 225.851562 153.648438 C 222.648438 156.484375 219.765625 158.382812 217.199219 159.351562 L 218.25 173.75 L 180.050781 149.25 L 177.898438 139.949219 "/>
    <path style="stroke:none;fill-rule:evenodd;fill:rgb(65.098039%,80.784314%,22.352941%);fill-opacity:1" d="M 220.398438 168.5 C 224.433594 168.566406 229.015625 168.035156 234.148438 166.898438 C 239.285156 165.765625 244.667969 163.964844 250.300781 161.5 C 255.898438 159.066406 261.464844 155.917969 267 152.050781 C 272.535156 148.214844 277.714844 143.632812 282.550781 138.300781 C 287.351562 133 291.535156 126.898438 295.101562 120 L 282.351562 108.148438 C 279.816406 115.714844 276.550781 122.75 272.550781 129.25 C 268.515625 135.714844 263.832031 141.484375 258.5 146.550781 C 253.167969 151.617188 247.285156 155.800781 240.851562 159.101562 C 234.417969 162.367188 227.535156 164.566406 220.199219 165.699219 L 220.398438 168.5 "/>
    <path style="stroke:none;fill-rule:evenodd;fill:rgb(0.000000%,70.588235%,90.196078%);fill-opacity:1" d="M 220.101562 163.699219 C 224.332031 163.234375 228.851562 161.867188 233.648438 159.601562 C 238.449219 157.332031 243.265625 154.199219 248.101562 150.199219 C 252.964844 146.234375 257.601562 141.382812 262 135.648438 C 266.433594 129.949219 270.417969 123.417969 273.949219 116.050781 C 277.484375 108.648438 280.332031 100.433594 282.5 91.398438 L 269 80.5 C 269.234375 84.667969 268.765625 89.25 267.601562 94.25 C 266.433594 99.285156 264.714844 104.484375 262.449219 109.851562 C 260.148438 115.183594 257.433594 120.464844 254.300781 125.699219 C 251.132812 130.933594 247.683594 135.867188 243.949219 140.5 C 240.183594 145.101562 236.265625 149.167969 232.199219 152.699219 C 228.132812 156.199219 224.015625 158.917969 219.851562 160.851562 L 220.101562 163.699219 "/>
    <path style="stroke:none;fill-rule:evenodd;fill:rgb(74.509804%,84.313725%,27.843137%);fill-opacity:1" d="M 282.351562 108.148438 L 295.101562 120 C 294.300781 121.535156 293.464844 123.035156 292.601562 124.5 C 286.066406 127 279.101562 129 271.699219 130.5 C 276.101562 123.667969 279.648438 116.214844 282.351562 108.148438 "/>
    <path style="stroke:none;fill-rule:evenodd;fill:rgb(26.666667%,78.431373%,96.078431%);fill-opacity:1" d="M 264.898438 131.699219 C 268.699219 126.300781 272.101562 120.234375 275.101562 113.5 C 278.132812 106.800781 280.601562 99.433594 282.5 91.398438 L 268.949219 80.5 C 269.148438 84.132812 268.816406 88.101562 267.949219 92.398438 C 267.117188 96.699219 265.816406 101.167969 264.050781 105.800781 C 262.285156 110.433594 260.148438 115.066406 257.648438 119.699219 C 255.183594 124.367188 252.433594 128.867188 249.398438 133.199219 C 254.699219 132.964844 259.867188 132.464844 264.898438 131.699219 "/>
    <path style="stroke:none;fill-rule:evenodd;fill:rgb(77.647059%,23.921569%,58.823529%);fill-opacity:1" d="M 208.601562 72.449219 C 208.601562 72.484375 208.515625 73.550781 208.351562 75.648438 C 208.183594 77.714844 207.816406 80.535156 207.25 84.101562 C 206.648438 87.667969 205.75 91.683594 204.550781 96.148438 C 203.351562 100.648438 201.734375 105.332031 199.699219 110.199219 C 197.667969 115.066406 195.101562 119.851562 192 124.550781 C 199.367188 127.382812 207.285156 129.566406 215.75 131.101562 C 224.214844 132.601562 233.050781 133.367188 242.25 133.398438 C 242.484375 133.398438 242.699219 133.398438 242.898438 133.398438 C 246.398438 128.199219 249.632812 122.75 252.601562 117.050781 C 255.535156 111.316406 257.949219 105.617188 259.851562 99.949219 C 261.714844 94.285156 262.832031 88.949219 263.199219 83.949219 C 263.535156 78.949219 262.882812 74.601562 261.25 70.898438 L 208.601562 72.449219 "/>
  </g>
  <g id="surface4">
  </g>
</svg>