<?xml version="1.0" encoding="UTF-8" standalone="no"?>
<svg
   xmlns:dc="http://purl.org/dc/elements/1.1/"
   xmlns:cc="http://creativecommons.org/ns#"
   xmlns:rdf="http://www.w3.org/1999/02/22-rdf-syntax-ns#"
   xmlns:svg="http://www.w3.org/2000/svg"
   xmlns="http://www.w3.org/2000/svg"
   xmlns:sodipodi="http://sodipodi.sourceforge.net/DTD/sodipodi-0.dtd"
   xmlns:inkscape="http://www.inkscape.org/namespaces/inkscape"
   width="576"
   height="324"
   viewBox="0 0 432 243"
   version="1.1"
   id="svg16"
   sodipodi:docname="SVGlogo.svg"
   inkscape:version="0.92.2 2405546, 2018-03-11"
   inkscape:export-filename="/home/zaen/Projects/Testly/artworks/Logo3.png"
   inkscape:export-xdpi="96"
   inkscape:export-ydpi="96">
  <metadata
     id="metadata22">
    <rdf:RDF>
      <cc:Work
         rdf:about="">
        <dc:format>image/svg+xml</dc:format>
        <dc:type
           rdf:resource="http://purl.org/dc/dcmitype/StillImage" />
        <dc:title></dc:title>
      </cc:Work>
    </rdf:RDF>
  </metadata>
  <defs
     id="defs20" />
  <sodipodi:namedview
     pagecolor="#ffffff"
     bordercolor="#666666"
     borderopacity="1"
     objecttolerance="10"
     gridtolerance="10"
     guidetolerance="10"
     inkscape:pageopacity="0"
     inkscape:pageshadow="2"
     inkscape:window-width="1920"
     inkscape:window-height="1051"
     id="namedview18"
     showgrid="false"
     units="px"
     inkscape:zoom="0.5125"
     inkscape:cx="-18.536586"
     inkscape:cy="271.38211"
     inkscape:window-x="0"
     inkscape:window-y="1080"
     inkscape:window-maximized="1"
     inkscape:current-layer="g42" />
  <g
     id="g42"
     transform="translate(0,4.5)">
    <g
       id="g77"
       transform="translate(-12.000001)">
      <g
         id="g64">
        <path
           style="fill:#bd198c;fill-opacity:1;fill-rule:evenodd;stroke:none;stroke-width:0.77377963"
           d="m 119.84545,156.53993 c 2.60547,0.35969 5.77614,0.52895 9.5181,0.50175 3.73892,-0.0241 7.82545,-0.35969 12.26259,-1.0035 4.46132,-0.61962 9.06773,-1.65335 13.81318,-3.09511 4.74544,-1.42062 9.4395,-3.35507 14.08218,-5.80335 4.66989,-2.45131 9.06471,-5.52225 13.19355,-9.20979 l -8.47228,-9.32465 c -2.47851,3.12232 -5.44366,6.01191 -8.89847,8.66875 -3.43062,2.65685 -7.13328,5.04166 -11.10495,7.15746 -3.97166,2.11278 -8.02192,3.90517 -12.14773,5.37717 -4.12884,1.44479 -8.11259,2.51478 -11.95429,3.20997 -3.84472,0.7224 -7.33882,1.00652 -10.48532,0.85237 l 0.19344,2.66893 M 86.648496,130.38558 c 3.741944,-2.99235 6.939836,-6.3323 9.596678,-10.01984 2.629644,-3.68754 4.824036,-7.49297 6.577126,-11.41325 1.72892,-3.89611 3.10721,-7.67433 4.13791,-11.334666 1.03372,-3.663363 1.79238,-6.951926 2.28507,-9.865691 0.48965,-2.916786 0.79796,-5.238125 0.92793,-6.964017 0.15415,-1.728913 0.21762,-2.60546 0.19344,-2.632663 l 40.73829,-1.199963 c 1.21205,2.684048 1.72891,5.803347 1.54756,9.363942 -0.15415,3.584776 -0.84934,7.40229 -2.0886,11.452543 -1.23925,4.050255 -2.86238,8.163975 -4.87541,12.341185 -2.01002,4.1772 -4.25579,8.21536 -6.73128,12.10844 -2.45131,3.8961 -4.99028,7.4567 -7.62294,10.67876 -2.60244,3.22509 -5.13234,5.92123 -7.58063,8.0854 -2.47851,2.19438 -4.70917,3.66336 -6.695,4.41295 l 0.81307,11.14122 -29.557777,-18.9576 -1.665437,-7.19675"
           id="path2"
           inkscape:connector-curvature="0" />
        <g
           id="g55">
          <path
             inkscape:connector-curvature="0"
             id="path4"
             d="m 119.53413,152.47759 c 3.12232,0.0514 6.6678,-0.35968 10.63947,-1.23925 3.97469,-0.87656 8.1398,-2.26996 12.49835,-4.17721 4.33136,-1.88306 8.63852,-4.31926 12.92152,-7.31161 4.28299,-2.96817 8.29092,-6.51365 12.03288,-10.63947 3.71474,-4.10164 6.95193,-8.8229 9.71153,-14.16077 l -9.86569,-9.1705 c -1.96164,5.85473 -4.48852,11.29839 -7.58364,16.32796 -3.12233,5.00236 -6.74639,9.46671 -10.87221,13.38699 -4.12581,3.92029 -8.67781,7.15746 -13.656,9.71154 -4.97818,2.52688 -10.30396,4.22859 -15.98036,5.10513 l 0.15415,2.16719"
             style="fill:#a6cc38;fill-opacity:1;fill-rule:evenodd;stroke:none;stroke-width:0.77377963" />
          <path
             inkscape:connector-curvature="0"
             id="path6"
             d="m 119.30441,148.76285 c 3.27345,-0.3597 6.77057,-1.41759 10.4823,-3.17069 3.71475,-1.75612 7.44158,-4.18022 11.18353,-7.27534 3.76311,-3.06792 7.35091,-6.82196 10.75433,-11.2591 3.43062,-4.40994 6.51365,-9.46369 9.24606,-15.16427 2.73543,-5.72778 4.93889,-12.084261 6.61642,-19.075478 l -10.44602,-8.432989 c 0.18135,3.22509 -0.18136,6.770572 -1.08209,10.63947 -0.90375,3.896101 -2.23368,7.919157 -3.98677,12.072167 -1.7803,4.12582 -3.88099,8.21234 -6.3051,12.2626 -2.45131,4.05025 -5.12025,7.86777 -8.00983,11.45254 -2.91376,3.56059 -5.94541,6.7071 -9.09191,9.43951 -3.1465,2.70823 -6.3323,4.81194 -9.55436,6.30811 l 0.19344,2.20347"
             style="fill:#00b3e6;fill-opacity:1;fill-rule:evenodd;stroke:none;stroke-width:0.77377963" />
          <path
             inkscape:connector-curvature="0"
             id="path8"
             d="m 167.47219,105.77878 9.86569,9.1705 c -0.61962,1.18787 -1.26646,2.34854 -1.93445,3.48201 -5.05676,1.93445 -10.44602,3.48201 -16.1738,4.64268 3.40644,-5.28649 6.15094,-11.05357 8.24256,-17.29519"
             style="fill:#bdd745;fill-opacity:1;fill-rule:evenodd;stroke:none;stroke-width:0.77377963" />
          <path
             inkscape:connector-curvature="0"
             id="path10"
             d="m 153.96732,124.0019 c 2.94097,-4.17721 5.57363,-8.87126 7.89497,-14.08219 2.34552,-5.18372 4.25579,-10.884297 5.72476,-17.101738 l -10.48531,-8.432989 c 0.15415,2.810996 -0.10277,5.881934 -0.77378,9.206769 -0.64381,3.327857 -1.65033,6.785688 -3.01654,10.370458 -1.3662,3.58478 -3.01955,7.16956 -4.954,10.75433 -1.90725,3.61198 -4.03514,7.09399 -6.38368,10.44603 4.10164,-0.18136 8.10051,-0.56825 11.99358,-1.16067"
             style="fill:#42c7f5;fill-opacity:1;fill-rule:evenodd;stroke:none;stroke-width:0.77377963" />
          <path
             inkscape:connector-curvature="0"
             id="path12"
             d="m 110.40595,78.155453 c 0,0.02721 -0.0665,0.852366 -0.19345,2.47549 -0.12997,1.598943 -0.41409,3.781243 -0.85236,6.540855 -0.46548,2.759613 -1.16067,5.866822 -2.08861,9.321628 -0.92793,3.48201 -2.17928,7.106074 -3.75403,10.872204 -1.57174,3.76614 -3.55758,7.46879 -5.957504,11.10495 5.700584,2.19137 11.827344,3.88099 18.377264,5.06886 6.54992,1.16067 13.38699,1.7531 20.50516,1.77728 0.18135,0 0.3476,0 0.50175,0 2.70823,-4.02305 5.21092,-8.23955 7.50808,-12.64949 2.26996,-4.43714 4.13791,-8.84708 5.6099,-13.232837 1.44177,-4.382737 2.30623,-8.511576 2.59035,-12.380475 0.25995,-3.868898 -0.24483,-7.233026 -1.50826,-10.098428 l -40.73829,1.199963"
             style="fill:#c53a94;fill-opacity:1;fill-rule:evenodd;stroke:none;stroke-width:0.77377963" />
        </g>
      </g>
      <text
         xml:space="preserve"
         style="font-style:italic;font-variant:normal;font-weight:500;font-stretch:normal;font-size:30px;line-height:125%;font-family:Z003;-inkscape-font-specification:'Z003, Medium Italic';font-variant-ligatures:normal;font-variant-caps:normal;font-variant-numeric:normal;font-feature-settings:normal;text-align:start;letter-spacing:0px;word-spacing:0px;writing-mode:lr-tb;text-anchor:start;fill:#000000;fill-opacity:1;stroke:none;stroke-width:0.75px;stroke-linecap:butt;stroke-linejoin:miter;stroke-opacity:1"
         x="196.04276"
         y="143.58963"
         id="text3741"><tspan
           sodipodi:role="line"
           id="tspan3739"
           x="196.04276"
           y="143.58963"
           style="font-style:italic;font-variant:normal;font-weight:500;font-stretch:normal;font-size:80px;font-family:Z003;-inkscape-font-specification:'Z003, Medium Italic';font-variant-ligatures:normal;font-variant-caps:normal;font-variant-numeric:normal;font-feature-settings:normal;text-align:start;writing-mode:lr-tb;text-anchor:start;stroke-width:0.75px">Testly</tspan><tspan
           sodipodi:role="line"
           x="196.04276"
           y="181.08963"
           style="font-style:italic;font-variant:normal;font-weight:500;font-stretch:normal;font-size:80px;font-family:Z003;-inkscape-font-specification:'Z003, Medium Italic';font-variant-ligatures:normal;font-variant-caps:normal;font-variant-numeric:normal;font-feature-settings:normal;text-align:start;writing-mode:lr-tb;text-anchor:start;stroke-width:0.75px"
           id="tspan3743" /></text>
    </g>
  </g>
</svg>
